<?xml version="1.0" encoding="UTF-8" standalone="no"?>
<!DOCTYPE svg PUBLIC "-//W3C//DTD SVG 1.1//EN"
 "http://www.w3.org/Graphics/SVG/1.1/DTD/svg11.dtd">
<!-- Generated by graphviz version 2.43.0 (0)
 -->
<!-- Title: %3 Pages: 1 -->
<svg width="1557pt" height="165pt"
 viewBox="0.00 0.00 1557.00 164.74" xmlns="http://www.w3.org/2000/svg" xmlns:xlink="http://www.w3.org/1999/xlink">
<g id="graph0" class="graph" transform="scale(1 1) rotate(0) translate(36 128.74)">
<title>%3</title>
<polygon fill="dimgray" stroke="transparent" points="-36,36 -36,-128.74 1521,-128.74 1521,36 -36,36"/>
<text text-anchor="middle" x="742.5" y="-77.54" font-family="Helvetica,sans-Serif" font-size="14.00">Sweep&#39;s Plan &amp; Progress</text>
<!-- start -->
<g id="node1" class="node">
<title>start</title>
</g>
<!-- b4254e08&#45;4ef3&#45;4d86&#45;89a3&#45;494b30b5eb34 -->
<g id="node3" class="node">
<title>b4254e08&#45;4ef3&#45;4d86&#45;89a3&#45;494b30b5eb34</title>
<ellipse fill="yellow" stroke="black" cx="109.5" cy="-26.87" rx="57.05" ry="26.74"/>
<text text-anchor="middle" x="109.5" y="-30.67" font-family="Helvetica,sans-Serif" font-size="14.00">⋯ Modify</text>
<text text-anchor="middle" x="109.5" y="-15.67" font-family="Helvetica,sans-Serif" font-size="14.00">Gemfile</text>
</g>
<!-- start&#45;&gt;b4254e08&#45;4ef3&#45;4d86&#45;89a3&#45;494b30b5eb34 -->
<g id="edge5" class="edge">
<title>start&#45;&gt;b4254e08&#45;4ef3&#45;4d86&#45;89a3&#45;494b30b5eb34</title>
<path fill="none" stroke="black" d="M1.2,-26.87C4.83,-26.87 22.17,-26.87 41.96,-26.87"/>
<polygon fill="black" stroke="black" points="42.14,-30.37 52.14,-26.87 42.14,-23.37 42.14,-30.37"/>
<text text-anchor="middle" x="26.61" y="-33.67" font-family="Helvetica,sans-Serif" font-size="14.00">Start</text>
</g>
<!-- end -->
<g id="node2" class="node">
<title>end</title>
</g>
<!-- eea60eb3&#45;306c&#45;4edb&#45;88a0&#45;c62f07997feb -->
<g id="node4" class="node">
<title>eea60eb3&#45;306c&#45;4edb&#45;88a0&#45;c62f07997feb</title>
<ellipse fill="white" stroke="black" cx="274.5" cy="-26.87" rx="72.25" ry="26.74"/>
<text text-anchor="middle" x="274.5" y="-30.67" font-family="Helvetica,sans-Serif" font-size="14.00">▶ Modify</text>
<text text-anchor="middle" x="274.5" y="-15.67" font-family="Helvetica,sans-Serif" font-size="14.00">Gemfile.lock</text>
</g>
<!-- b4254e08&#45;4ef3&#45;4d86&#45;89a3&#45;494b30b5eb34&#45;&gt;eea60eb3&#45;306c&#45;4edb&#45;88a0&#45;c62f07997feb -->
<g id="edge1" class="edge">
<title>b4254e08&#45;4ef3&#45;4d86&#45;89a3&#45;494b30b5eb34&#45;&gt;eea60eb3&#45;306c&#45;4edb&#45;88a0&#45;c62f07997feb</title>
<path fill="none" stroke="black" d="M166.86,-26.87C175.23,-26.87 183.6,-26.87 191.97,-26.87"/>
<polygon fill="black" stroke="black" points="192.18,-30.37 202.18,-26.87 192.18,-23.37 192.18,-30.37"/>
</g>
<!-- de2547f6&#45;4521&#45;4f45&#45;b9e1&#45;500121bb76a2 -->
<g id="node5" class="node">
<title>de2547f6&#45;4521&#45;4f45&#45;b9e1&#45;500121bb76a2</title>
<ellipse fill="white" stroke="black" cx="494.5" cy="-26.87" rx="112.36" ry="26.74"/>
<text text-anchor="middle" x="494.5" y="-30.67" font-family="Helvetica,sans-Serif" font-size="14.00">▶ Modify</text>
<text text-anchor="middle" x="494.5" y="-15.67" font-family="Helvetica,sans-Serif" font-size="14.00">config/application.rb</text>
</g>
<!-- eea60eb3&#45;306c&#45;4edb&#45;88a0&#45;c62f07997feb&#45;&gt;de2547f6&#45;4521&#45;4f45&#45;b9e1&#45;500121bb76a2 -->
<g id="edge2" class="edge">
<title>eea60eb3&#45;306c&#45;4edb&#45;88a0&#45;c62f07997feb&#45;&gt;de2547f6&#45;4521&#45;4f45&#45;b9e1&#45;500121bb76a2</title>
<path fill="none" stroke="black" d="M346.69,-26.87C355.03,-26.87 363.38,-26.87 371.73,-26.87"/>
<polygon fill="black" stroke="black" points="371.91,-30.37 381.91,-26.87 371.91,-23.37 371.91,-30.37"/>
</g>
<!-- dd61c82e&#45;20ab&#45;46ca&#45;b4c0&#45;8c23f5390801 -->
<g id="node6" class="node">
<title>dd61c82e&#45;20ab&#45;46ca&#45;b4c0&#45;8c23f5390801</title>
<ellipse fill="white" stroke="black" cx="899.5" cy="-26.87" rx="256.86" ry="26.74"/>
<text text-anchor="middle" x="899.5" y="-30.67" font-family="Helvetica,sans-Serif" font-size="14.00">▶ Create</text>
<text text-anchor="middle" x="899.5" y="-15.67" font-family="Helvetica,sans-Serif" font-size="14.00">config/initializers/new_framework_defaults_7_0.rb</text>
</g>
<!-- de2547f6&#45;4521&#45;4f45&#45;b9e1&#45;500121bb76a2&#45;&gt;dd61c82e&#45;20ab&#45;46ca&#45;b4c0&#45;8c23f5390801 -->
<g id="edge3" class="edge">
<title>de2547f6&#45;4521&#45;4f45&#45;b9e1&#45;500121bb76a2&#45;&gt;dd61c82e&#45;20ab&#45;46ca&#45;b4c0&#45;8c23f5390801</title>
<path fill="none" stroke="black" d="M607.22,-26.87C615.61,-26.87 623.99,-26.87 632.38,-26.87"/>
<polygon fill="black" stroke="black" points="632.61,-30.37 642.61,-26.87 632.61,-23.37 632.61,-30.37"/>
</g>
<!-- f238bf9c&#45;5207&#45;4fb1&#45;af94&#45;ae8e9a9ebb5a -->
<g id="node7" class="node">
<title>f238bf9c&#45;5207&#45;4fb1&#45;af94&#45;ae8e9a9ebb5a</title>
<ellipse fill="white" stroke="black" cx="1309.5" cy="-26.87" rx="117.26" ry="26.74"/>
<text text-anchor="middle" x="1309.5" y="-30.67" font-family="Helvetica,sans-Serif" font-size="14.00">▶ Create</text>
<text text-anchor="middle" x="1309.5" y="-15.67" font-family="Helvetica,sans-Serif" font-size="14.00">test/upgrade_tests.rb</text>
</g>
<!-- dd61c82e&#45;20ab&#45;46ca&#45;b4c0&#45;8c23f5390801&#45;&gt;f238bf9c&#45;5207&#45;4fb1&#45;af94&#45;ae8e9a9ebb5a -->
<g id="edge4" class="edge">
<title>dd61c82e&#45;20ab&#45;46ca&#45;b4c0&#45;8c23f5390801&#45;&gt;f238bf9c&#45;5207&#45;4fb1&#45;af94&#45;ae8e9a9ebb5a</title>
<path fill="none" stroke="black" d="M1156.55,-26.87C1164.98,-26.87 1173.4,-26.87 1181.82,-26.87"/>
<polygon fill="black" stroke="black" points="1182.1,-30.37 1192.1,-26.87 1182.1,-23.37 1182.1,-30.37"/>
</g>
<!-- f238bf9c&#45;5207&#45;4fb1&#45;af94&#45;ae8e9a9ebb5a&#45;&gt;end -->
<g id="edge6" class="edge">
<title>f238bf9c&#45;5207&#45;4fb1&#45;af94&#45;ae8e9a9ebb5a&#45;&gt;end</title>
<path fill="none" stroke="black" d="M1427.2,-26.87C1446.25,-26.87 1463.12,-26.87 1473.54,-26.87"/>
<polygon fill="black" stroke="black" points="1473.84,-30.37 1483.84,-26.87 1473.84,-23.37 1473.84,-30.37"/>
<text text-anchor="middle" x="1455.44" y="-33.67" font-family="Helvetica,sans-Serif" font-size="14.00">Finish</text>
</g>
</g>
</svg>
