<?xml version="1.0" encoding="UTF-8" standalone="no"?>
<!DOCTYPE svg PUBLIC "-//W3C//DTD SVG 1.1//EN"
 "http://www.w3.org/Graphics/SVG/1.1/DTD/svg11.dtd">
<!-- Generated by graphviz version 2.43.0 (0)
 -->
<!-- Title: %3 Pages: 1 -->
<svg width="441pt" height="165pt"
 viewBox="0.00 0.00 441.00 164.74" xmlns="http://www.w3.org/2000/svg" xmlns:xlink="http://www.w3.org/1999/xlink">
<g id="graph0" class="graph" transform="scale(1 1) rotate(0) translate(36 128.74)">
<title>%3</title>
<polygon fill="dimgray" stroke="transparent" points="-36,36 -36,-128.74 405,-128.74 405,36 -36,36"/>
<text text-anchor="middle" x="184.5" y="-77.54" font-family="Helvetica,sans-Serif" font-size="14.00">Sweep&#39;s Plan &amp; Progress</text>
<!-- start -->
<g id="node1" class="node">
<title>start</title>
</g>
<!-- be15c82b&#45;796f&#45;44b0&#45;9467&#45;973c727f6a34 -->
<g id="node3" class="node">
<title>be15c82b&#45;796f&#45;44b0&#45;9467&#45;973c727f6a34</title>
<ellipse fill="yellow" stroke="black" cx="109.5" cy="-26.87" rx="57.05" ry="26.74"/>
<text text-anchor="middle" x="109.5" y="-30.67" font-family="Helvetica,sans-Serif" font-size="14.00">⋯ Modify</text>
<text text-anchor="middle" x="109.5" y="-15.67" font-family="Helvetica,sans-Serif" font-size="14.00">Gemfile</text>
</g>
<!-- start&#45;&gt;be15c82b&#45;796f&#45;44b0&#45;9467&#45;973c727f6a34 -->
<g id="edge2" class="edge">
<title>start&#45;&gt;be15c82b&#45;796f&#45;44b0&#45;9467&#45;973c727f6a34</title>
<path fill="none" stroke="black" d="M1.2,-26.87C4.83,-26.87 22.17,-26.87 41.96,-26.87"/>
<polygon fill="black" stroke="black" points="42.14,-30.37 52.14,-26.87 42.14,-23.37 42.14,-30.37"/>
<text text-anchor="middle" x="26.61" y="-33.67" font-family="Helvetica,sans-Serif" font-size="14.00">Start</text>
</g>
<!-- end -->
<g id="node2" class="node">
<title>end</title>
</g>
<!-- 30fe78ed&#45;dd37&#45;455e&#45;9d5b&#45;9426d7ee02e3 -->
<g id="node4" class="node">
<title>30fe78ed&#45;dd37&#45;455e&#45;9d5b&#45;9426d7ee02e3</title>
<ellipse fill="white" stroke="black" cx="256.5" cy="-26.87" rx="54.39" ry="26.74"/>
<text text-anchor="middle" x="256.5" y="-30.67" font-family="Helvetica,sans-Serif" font-size="14.00">▶ Modify</text>
<text text-anchor="middle" x="256.5" y="-15.67" font-family="Helvetica,sans-Serif" font-size="14.00">Gemfile</text>
</g>
<!-- be15c82b&#45;796f&#45;44b0&#45;9467&#45;973c727f6a34&#45;&gt;30fe78ed&#45;dd37&#45;455e&#45;9d5b&#45;9426d7ee02e3 -->
<g id="edge1" class="edge">
<title>be15c82b&#45;796f&#45;44b0&#45;9467&#45;973c727f6a34&#45;&gt;30fe78ed&#45;dd37&#45;455e&#45;9d5b&#45;9426d7ee02e3</title>
<path fill="none" stroke="black" d="M166.92,-26.87C175.21,-26.87 183.51,-26.87 191.8,-26.87"/>
<polygon fill="black" stroke="black" points="191.91,-30.37 201.91,-26.87 191.91,-23.37 191.91,-30.37"/>
</g>
<!-- 30fe78ed&#45;dd37&#45;455e&#45;9d5b&#45;9426d7ee02e3&#45;&gt;end -->
<g id="edge3" class="edge">
<title>30fe78ed&#45;dd37&#45;455e&#45;9d5b&#45;9426d7ee02e3&#45;&gt;end</title>
<path fill="none" stroke="black" d="M311.19,-26.87C328.9,-26.87 346.79,-26.87 357.76,-26.87"/>
<polygon fill="black" stroke="black" points="357.76,-30.37 367.76,-26.87 357.76,-23.37 357.76,-30.37"/>
<text text-anchor="middle" x="339.47" y="-33.67" font-family="Helvetica,sans-Serif" font-size="14.00">Finish</text>
</g>
</g>
</svg>
